<svg xmlns="http://www.w3.org/2000/svg" fill="none" viewBox="0 0 359.1 59.4"><path d="M29.7 59.4c16.4 0 29.7-13.3 29.7-29.7S46.1 0 29.7 0 0 13.3 0 29.7s13.3 29.7 29.7 29.7" fill="#00966c"></path><path d="M13.9 18.6c-.4-1-1-1.6-1.7-2-.7-.3-1.6-.3-2.5.1-.9.4-1.5.9-1.8 1.7s-.2 1.6.2 2.6l9.2 22c.4 1 1 1.6 1.7 2 .7.3 1.5.3 2.4 0 .9-.4 1.5-.9 1.7-1.7.3-.8.2-1.6-.2-2.6zm18.9 0c-.4-1-1-1.5-1.7-1.9-.9-.4-1.8-.4-2.7 0-.8.3-1.3.9-1.7 1.9l-4 9.8c-.4 1-.5 1.9-.2 2.6.3.8.9 1.3 1.7 1.7.9.4 1.7.4 2.4 0 .7-.3 1.3-1 1.7-2l1.3-3.2L36 42.9c.4 1 1 1.6 1.7 2 .7.3 1.5.3 2.4 0 .9-.4 1.5-.9 1.7-1.7.3-.8.2-1.6-.2-2.6zm18.7-.2c-.3-.8-.9-1.3-1.8-1.7-.9-.4-1.7-.4-2.5-.1-.8.4-1.3 1-1.7 2l-4 9.8c-.4 1-.5 1.9-.2 2.6.3.8.9 1.3 1.7 1.7.9.4 1.7.4 2.4 0 .7-.3 1.3-1 1.7-2l4.1-9.8c.5-.9.6-1.7.3-2.5z" fill="#fff"></path><path d="M123.4 16.8c-.6 0-1.2.2-1.7.5s-.9.8-1.2 1.5l-6.6 17.1-6.9-17c-.3-.7-.7-1.2-1.3-1.6s-1.2-.5-1.9-.5-1.3.2-1.9.5c-.6.4-1 .9-1.3 1.6l-6.8 17-6.6-17.1c-.3-.7-.7-1.2-1.2-1.5s-1.1-.5-1.7-.5c-.9 0-1.7.3-2.5.9-.7.6-1.1 1.4-1.1 2.2 0 .3.1.7.3 1.2l9.2 21.7c.3.7.8 1.3 1.4 1.6.6.4 1.3.6 2 .6s1.4-.2 2-.6 1.1-.9 1.4-1.6l6.5-16.1 6.7 16.1c.3.7.8 1.3 1.4 1.6.6.4 1.3.6 2 .6s1.4-.2 2.1-.6c.6-.4 1.1-.9 1.4-1.6l9.3-21.7c.2-.4.3-.8.3-1.3 0-.9-.3-1.6-1-2.2-.7-.5-1.5-.8-2.3-.8zm22.9-.3c-2 0-3.8.4-5.3 1.2-1.6.8-2.8 1.9-3.7 3.3V10.1c0-1-.3-1.7-1-2.3-.6-.6-1.5-.8-2.5-.8s-1.9.3-2.6.9-1 1.4-1 2.4v31.4c0 1 .3 1.9.9 2.5s1.5.9 2.6.9 1.9-.3 2.6-.9c.6-.6 1-1.4 1-2.5V29.2c0-2.1.6-3.8 1.8-5.1s2.8-1.9 4.9-1.9c1.7 0 3 .5 3.8 1.4S149 26 149 28v13.8c0 1 .3 1.9 1 2.5.6.6 1.5.9 2.6.9s1.9-.3 2.6-.9c.6-.6.9-1.4.9-2.5V28c-.1-7.7-3.3-11.5-9.8-11.5zm19.2.2c-1 0-1.8.3-2.5.8-.7.6-1 1.4-1 2.5v21.7c0 1.1.3 1.9 1 2.5s1.5.9 2.5.9 1.9-.3 2.5-.9c.7-.6 1-1.4 1-2.5V20c0-1.1-.3-1.9-1-2.5-.6-.5-1.5-.8-2.5-.8zm0-9.7c-1.1 0-2 .3-2.6.9s-1 1.4-1 2.3.3 1.7 1 2.3c.6.6 1.5.9 2.6.9s2-.3 2.6-.9 1-1.4 1-2.3-.3-1.7-1-2.3-1.5-.9-2.6-.9zm21.8 32.8-1.5-.1c-2.5-.2-3.8-1.7-3.8-4.4V22.6h4.8c1 0 1.8-.2 2.3-.7s.8-1.1.8-2-.3-1.5-.8-2-1.3-.7-2.3-.7H182v-6.8c0-1-.3-1.8-1-2.4-.6-.6-1.5-.9-2.5-.9-1.1 0-1.9.3-2.6.9-.6.6-1 1.4-1 2.4v24.3c0 6.3 3.1 9.7 9.4 10.1l1.5.1c1.3.1 2.4-.1 3.1-.6s1.1-1.2 1.1-2c.1-1.6-.8-2.4-2.7-2.5zm107.1-23.1c-.6 0-1.1.2-1.7.5-.5.3-.9.8-1.2 1.5l-6.6 17.1-6.9-17c-.3-.7-.7-1.2-1.3-1.6s-1.2-.5-1.9-.5-1.3.2-1.9.5c-.6.4-1 .9-1.3 1.6l-6.8 17-6.6-17.1c-.3-.7-.7-1.2-1.2-1.5s-1.1-.5-1.7-.5c-.9 0-1.7.3-2.5.9s-1.1 1.4-1.1 2.2c0 .3.1.7.3 1.2l9.2 21.7c.3.7.8 1.3 1.4 1.6.6.4 1.3.6 2 .6s1.4-.2 2.1-.6c.6-.4 1.1-.9 1.4-1.6l6.5-16.1 6.7 16.1c.3.7.8 1.3 1.4 1.6.6.4 1.3.6 2 .6s1.4-.2 2-.6 1.1-.9 1.4-1.6l9.3-21.7c.2-.4.3-.8.3-1.3 0-.9-.3-1.6-1-2.2-.7-.5-1.5-.8-2.3-.8zm63.6.9c-.7-.6-1.5-.9-2.3-.9-.6 0-1.2.2-1.7.5s-.9.8-1.2 1.5L345 36l-7.9-17.4c-.3-.7-.7-1.2-1.2-1.5s-1.1-.5-1.7-.5c-.9 0-1.8.3-2.5.9s-1.1 1.3-1.1 2.2c0 .5.1.9.3 1.3l10.4 21.7-.3.9c-1 2.6-2 4-4.4 4.2l-1.5.1c-1.9.1-2.8 1-2.8 2.5 0 .9.4 1.6 1.1 2 .7.5 1.8.7 3.1.6l1.5-.1c5.8-.5 6.9-2.4 9.1-7.3L358.8 21c.2-.4.3-.9.3-1.3-.1-.8-.5-1.5-1.1-2.1zM251.2 39c-.5 0-.8.2-1.5.2-1 0-1-1.5-1-2.8V20c0-1-.3-1.8-1-2.4-.6-.6-1.5-.9-2.5-.9s-1.9.3-2.5.9-1 1.4-1 2.4v.7c-.9-1.4-1.9-2.2-3.5-2.9-1.6-.8-3.4-1.1-5.4-1.1-2.4 0-4.5.6-6.3 1.8s-3.3 2.9-4.3 5.1-1.5 4.7-1.5 7.6c0 2.8.5 5.3 1.5 7.4s2.5 3.8 4.3 5 4 1.8 6.3 1.8c2 0 3.8-.4 5.3-1.3 1.6-.9 3.8-2.9 4.2-4.1 0 1.5.5 2.8 1.8 4.1.9.9 3.2 1.2 4.8 1.1.9-.2 1.5-.3 2.3-.8 1.4-.8 2-1.8 2-2.9 0-.8-.2-1.3-.6-1.7-.4-.7-.7-.8-1.4-.8zm-11.3-1.6c-1.2 1.5-2.9 2.3-5.1 2.3s-4.3-.8-5.5-2.3-2.1-3.7-2.1-6.4c0-2.8.9-5.1 2.1-6.6 1.2-1.6 3.2-2.4 5.5-2.4 2.2 0 4 .8 5.2 2.3s2.1 3.7 2.1 6.6c-.1 2.8-1 5-2.2 6.5zm89.7 1.6c-.5 0-.8.2-1.5.2-1 0-1-1.5-1-2.8V20c0-1-.3-1.8-1-2.4-.6-.6-1.5-.9-2.5-.9s-1.9.3-2.5.9-1 1.4-1 2.4v.7c-.9-1.4-1.9-2.2-3.5-2.9-1.6-.8-3.4-1.1-5.4-1.1-2.4 0-4.5.6-6.3 1.8s-3.3 2.9-4.3 5.1-1.5 4.7-1.5 7.6c0 2.8.5 5.3 1.5 7.4s2.5 3.8 4.3 5 4 1.8 6.3 1.8c2 0 3.8-.4 5.3-1.3 1.6-.9 3.8-2.9 4.2-4.1 0 1.5.5 2.8 1.8 4.1.9.9 3.2 1.2 4.8 1.1.9-.2 1.5-.3 2.3-.8 1.4-.8 2-1.8 2-2.9 0-.8-.2-1.3-.6-1.7-.4-.7-.8-.8-1.4-.8zm-11.3-1.6c-1.2 1.5-2.9 2.3-5.1 2.3s-4.3-.8-5.5-2.3-2.1-3.7-2.1-6.4c0-2.8.9-5.1 2.1-6.6 1.2-1.6 3.2-2.4 5.5-2.4 2.2 0 4 .8 5.2 2.3s2.1 3.7 2.1 6.6c-.1 2.8-1 5-2.2 6.5zM211 18.2c-1.8-1.1-4-1.6-6.5-1.6-2.6 0-4.9.6-6.9 1.8s-3.6 2.9-4.7 5.1-1.7 4.7-1.7 7.5c0 4.4 1.3 7.9 3.9 10.4s6.1 3.8 10.5 3.8c1.5 0 3-.2 4.6-.6 1.1-.3 2.1-.7 2.9-1.1 1.4-.8 2.1-1.8 2.1-2.9 0-.8-.2-1.4-.6-1.9s-.9-.7-1.5-.7c-.5 0-1.4.4-2.5.9-.7.3-1 .3-1.7.6-.9.3-2 .4-3.2.4-2.4 0-4.2-.6-5.4-1.8s-2.2-3.1-2.5-5.7h16.9c1.4 0 2.1-.8 2.1-2.4 0-2.7-.5-5-1.5-7-1-2.2-2.4-3.7-4.3-4.8zm-13.2 10.2c.2-2.2 1.2-4 2.3-5.2s2.7-1.8 4.6-1.8 3.3.6 4.4 1.8c1 1.2 1.6 2.9 1.7 5.2z" fill="#00966c"></path></svg>